<?xml version="1.0" standalone="no"?><!-- Generator: Gravit.io --><svg xmlns="http://www.w3.org/2000/svg" xmlns:xlink="http://www.w3.org/1999/xlink" style="isolation:isolate" viewBox="-80 47 63.515 55.671" width="63.515" height="55.671"><path d=" M -18.607 47.004 C -18.79 47.016 -18.974 47.054 -19.157 47.117 L -75.387 67.07 C -76.472 67.447 -77.242 68.417 -77.364 69.559 C -77.502 70.699 -76.969 71.816 -75.997 72.426 L -62.477 81.031 L -57.853 97.992 C -57.625 98.868 -56.832 99.477 -55.927 99.469 L -55.9 99.469 C -55.218 99.462 -54.587 99.107 -54.228 98.527 C -54.181 98.481 -54.122 98.457 -54.083 98.407 L -47.337 89.469 L -35.637 96.852 C -34.852 97.35 -33.881 97.454 -33.009 97.132 C -32.137 96.817 -31.461 96.115 -31.18 95.232 L -16.583 49.61 C -16.347 48.886 -16.546 48.091 -17.095 47.563 C -17.497 47.171 -18.046 46.968 -18.607 47.004 Z  M -22.224 50.328 L -61.91 79.02 L -74.923 70.738 C -75.25 70.537 -75.429 70.162 -75.38 69.781 C -75.34 69.401 -75.084 69.079 -74.724 68.953 L -22.224 50.328 Z  M -19.251 51.391 L -31.544 89.812 C -31.567 89.792 -31.579 89.772 -31.603 89.757 C -31.83 89.62 -32.101 89.579 -32.358 89.643 C -32.615 89.707 -32.836 89.87 -32.973 90.097 L -34.005 91.812 C -34.289 92.287 -34.135 92.902 -33.661 93.187 C -33.338 93.38 -32.934 93.374 -32.618 93.171 L -33.083 94.621 C -33.175 94.916 -33.401 95.15 -33.693 95.253 C -33.983 95.36 -34.306 95.325 -34.567 95.159 L -50.333 85.218 L -19.251 51.391 Z  M -25.301 55.024 L -52.615 84.746 C -52.627 84.754 -52.631 84.774 -52.639 84.781 C -52.694 84.848 -52.733 84.93 -52.772 85.008 C -52.792 85.058 -52.822 85.098 -52.834 85.152 C -52.838 85.16 -52.846 85.168 -52.85 85.18 L -55.924 97.469 L -60.553 80.504 L -25.301 55.024 Z  M -69.264 68.02 C -69.663 67.964 -70.058 68.153 -70.264 68.5 L -71.29 70.215 C -71.427 70.441 -71.468 70.713 -71.404 70.969 C -71.34 71.226 -71.177 71.446 -70.95 71.582 C -70.786 71.68 -70.61 71.731 -70.435 71.731 C -70.095 71.731 -69.763 71.555 -69.575 71.242 L -68.548 69.527 C -68.411 69.3 -68.37 69.028 -68.435 68.77 C -68.499 68.513 -68.664 68.292 -68.892 68.157 C -69.004 68.086 -69.13 68.039 -69.262 68.02 L -69.264 68.02 Z  M -64.979 70.598 C -65.376 70.541 -65.769 70.729 -65.975 71.074 L -67.006 72.789 C -67.143 73.016 -67.184 73.289 -67.119 73.546 C -67.055 73.804 -66.89 74.025 -66.662 74.16 C -66.502 74.258 -66.326 74.305 -66.151 74.305 C -65.811 74.305 -65.479 74.129 -65.291 73.817 L -64.26 72.106 C -64.089 71.818 -64.074 71.463 -64.218 71.161 C -64.362 70.858 -64.647 70.647 -64.979 70.598 Z  M -60.693 73.172 C -61.092 73.116 -61.485 73.304 -61.693 73.649 L -62.72 75.362 C -62.856 75.589 -62.896 75.862 -62.832 76.119 C -62.767 76.376 -62.603 76.597 -62.376 76.733 C -62.149 76.871 -61.877 76.912 -61.619 76.849 C -61.362 76.785 -61.141 76.621 -61.005 76.393 L -59.974 74.679 C -59.692 74.206 -59.845 73.593 -60.317 73.308 C -60.431 73.237 -60.559 73.19 -60.692 73.171 L -60.693 73.172 Z  M -44.834 81.899 C -45.232 81.843 -45.626 82.03 -45.834 82.375 L -46.865 84.09 C -47.117 84.562 -46.955 85.148 -46.497 85.424 C -46.038 85.699 -45.444 85.566 -45.147 85.121 L -44.119 83.406 C -43.946 83.119 -43.929 82.764 -44.073 82.461 C -44.216 82.158 -44.502 81.947 -44.834 81.899 Z  M -65.724 83.641 C -65.979 83.601 -66.244 83.661 -66.471 83.824 L -68.971 85.644 C -69.416 85.969 -69.514 86.594 -69.19 87.044 C -68.862 87.489 -68.238 87.586 -67.791 87.262 L -65.291 85.438 C -64.845 85.113 -64.747 84.489 -65.072 84.043 C -65.227 83.828 -65.462 83.683 -65.725 83.641 L -65.724 83.641 Z  M -40.553 84.473 C -40.95 84.418 -41.342 84.605 -41.549 84.949 L -42.58 86.664 C -42.764 86.974 -42.768 87.358 -42.59 87.672 C -42.412 87.985 -42.08 88.179 -41.72 88.18 C -41.369 88.18 -41.044 87.994 -40.865 87.692 L -39.835 85.981 C -39.697 85.754 -39.656 85.482 -39.72 85.224 C -39.785 84.966 -39.949 84.745 -40.178 84.61 C -40.292 84.539 -40.42 84.492 -40.553 84.473 Z  M -51.244 87.004 L -49.034 88.399 L -52.865 93.469 L -51.244 87.004 Z  M -36.268 87.047 C -36.665 86.995 -37.055 87.183 -37.26 87.527 L -38.291 89.238 C -38.427 89.465 -38.468 89.738 -38.403 89.995 C -38.339 90.252 -38.175 90.473 -37.947 90.609 C -37.72 90.747 -37.448 90.789 -37.19 90.725 C -36.933 90.661 -36.711 90.497 -36.576 90.269 L -35.549 88.555 C -35.411 88.328 -35.37 88.055 -35.435 87.798 C -35.5 87.54 -35.664 87.319 -35.893 87.184 C -36.007 87.113 -36.135 87.066 -36.268 87.047 Z  M -71.834 88.097 C -72.095 88.055 -72.363 88.12 -72.576 88.277 L -77.588 91.93 C -78.033 92.256 -78.131 92.881 -77.807 93.328 C -77.618 93.585 -77.317 93.736 -76.998 93.735 C -76.795 93.735 -76.588 93.675 -76.412 93.547 L -71.401 89.891 C -71.075 89.653 -70.925 89.242 -71.019 88.85 C -71.114 88.458 -71.435 88.161 -71.834 88.098 L -71.834 88.097 Z  M -63.846 89.75 C -64.107 89.708 -64.375 89.773 -64.588 89.93 L -79.591 100.862 C -79.805 101.019 -79.948 101.255 -79.988 101.517 C -80.029 101.779 -79.963 102.047 -79.806 102.261 C -79.481 102.706 -78.857 102.804 -78.411 102.48 L -63.411 91.546 C -63.196 91.39 -63.052 91.155 -63.011 90.892 C -62.97 90.63 -63.035 90.362 -63.193 90.148 C -63.348 89.933 -63.583 89.789 -63.845 89.749 L -63.846 89.75 Z " fill="rgb(255,255,255)"/></svg>